<svg width="1000" height="600" xmlns="http://www.w3.org/2000/svg">
 <g>
  <title>Layer 1</title>
  <g stroke="null" id="svg_1">
   <path style="--darkreader-inline-fill: var(--darkreader-background-606266, #4b5154);" stroke="null" id="svg_2" d="m415.06377,100.66672l169.87243,0a152.89707,128.14638 0 0 1 152.89707,128.14638l0,142.3738a152.89707,128.14638 0 0 1 -152.89707,128.14638l-169.87243,0a152.89707,128.14638 0 0 1 -152.89707,-128.14638l0,-142.3738a152.89707,128.14638 0 0 1 152.89707,-128.14638zm0,42.70715a101.9413,85.43923 0 0 0 -101.9413,85.43923l0,142.3738a101.9413,85.43923 0 0 0 101.9413,85.43923l169.87243,0a101.9413,85.43923 0 0 0 101.9413,-85.43923l0,-142.3738a101.9413,85.43923 0 0 0 -101.9413,-85.43923l-169.87243,0zm-26.6076,223.07886l-37.10199,-32.39166l57.97187,-50.60574l-57.97187,-50.60574l37.10199,-32.51624l95.0144,83.12198l-95.0144,82.97248l0,0.02492l0,0.00001zm95.0144,-27.68241l165.17522,0l0,55.36482l-165.17522,0l0,-55.36482z" fill="#606266" p-id="9143"/>
  </g>
 </g>

</svg>